<svg width="528" height="515" viewBox="0 0 528 515" fill="none" xmlns="http://www.w3.org/2000/svg">
<path d="M395.293 173.445L418.673 184.387C418.673 184.387 400.748 223.426 407.481 255.158C416.761 298.891 451.712 295.632 464.808 334.291C479.757 378.418 435.556 390.599 450.633 434.682C457.161 453.769 479.576 477.463 479.576 477.463L464.808 490.285C464.808 490.285 433.467 478.063 422.895 461.167C411.559 443.048 416.156 406.852 416.156 406.852L403.643 460.926L391.13 515L355.162 498.165L378.097 400.733L403.941 312.701C403.941 312.701 387.187 294.389 378.557 270.124C365.375 233.064 395.293 173.445 395.293 173.445Z" fill="#2763E5"/>
<path d="M506.288 270.124C506.288 289.135 491.176 304.546 472.533 304.546C453.891 304.546 438.778 289.135 438.778 270.124C438.778 251.113 453.891 235.702 472.533 235.702C491.176 235.702 506.288 251.113 506.288 270.124Z" fill="#2763E5"/>
<path d="M235.209 53.6191C246.893 42.993 271.042 37.0403 286.834 37.07C306.95 37.1079 312.079 46.9665 321.251 64.8724C329.649 81.2659 321.251 106.576 321.251 106.576C321.251 106.576 293.381 94.8357 286.834 106.576C279.339 120.019 295.187 128.881 309.999 133.054C330.935 138.953 376.847 122.463 376.847 122.463L370.891 149.604C370.891 149.604 271.801 175.471 240.504 149.604C210.638 124.919 206.544 79.6888 235.209 53.6191Z" fill="#2763E5"/>
<path d="M395.642 82.9103L422.781 75.5904C422.781 75.5904 411.928 50.0527 430.762 44.6241C449.596 39.1955 454.923 65.2772 454.923 65.2772L488.063 54.6435L496.355 80.4936C496.355 80.4936 523.079 76.3535 527.471 88.0645C531.971 100.065 506.288 111.46 506.288 111.46L515.074 142.792L478.998 151.947C478.998 151.947 468.954 123.935 457.249 127.196C445.663 130.423 454.016 159.963 454.016 159.963L422.275 170.494L412.945 141.411C412.945 141.411 384.065 150.168 383.871 134.142C383.742 123.54 403.199 112.206 403.199 112.206L395.642 82.9103Z" fill="#2763E5"/>
<path d="M103.68 126.603C108.445 128.02 112.25 128.622 112.268 128.625L112.284 155.773L147.088 155.752C147.088 155.752 144.21 182.217 163.802 182.791C183.38 183.364 180.847 155.771 180.843 155.733L206.223 156.912C227.035 175.008 259.736 186.673 296.514 186.673C312.922 186.673 328.518 184.349 342.61 180.171C348.805 193.651 354.771 210.43 354.771 225.067C354.771 291.844 333.901 326.612 328.958 393.205C325.595 438.516 328.949 509.516 328.958 509.711H138.342V452.12C138.221 452.116 83.8641 450.479 62.8898 440.867C42.976 431.74 38.4173 408.514 38.401 408.431V357.459C38.2844 357.488 -0.816798 367.112 0.0130235 352.164C0.531043 342.84 4.08356 345.032 15.8977 334.291C30.4331 321.074 38.3734 287.409 38.401 287.292C38.3945 287.152 36.7242 250.869 38.401 225.067C40.081 199.216 37.087 176.66 54.9475 154.899C68.9068 137.892 84.6797 129.45 103.68 126.603Z" fill="#2763E5"/>
<path d="M395.793 34.422C395.793 53.4328 380.68 68.844 362.038 68.844C343.396 68.844 328.283 53.4328 328.283 34.422C328.283 15.4113 343.396 0 362.038 0C380.68 0 395.793 15.4113 395.793 34.422Z" fill="#2763E5"/>
</svg>
