<svg width="300" height="300" viewBox="0 0 300 300" fill="none" xmlns="http://www.w3.org/2000/svg">
<path d="M110.84 72.94L62.12 60L70.98 27.4C71.6952 24.8336 73.3955 22.6537 75.7105 21.3351C78.0255 20.0166 80.7678 19.6661 83.34 20.36L112.54 28.2C113.812 28.5367 115.006 29.1213 116.052 29.9202C117.098 30.7192 117.976 31.7168 118.636 32.8558C119.295 33.9948 119.723 35.2529 119.896 36.5578C120.068 37.8627 119.981 39.1888 119.64 40.46L110.84 72.94ZM20.44 220.06C19.885 218.267 19.8503 216.352 20.34 214.54L56.72 80.02L105.42 92.96L69.04 227.48C68.5527 229.298 67.5612 230.941 66.18 232.22L37.04 259.16C36.6635 259.502 36.2071 259.745 35.7127 259.865C35.2182 259.985 34.7014 259.979 34.2098 259.848C33.7182 259.717 33.2674 259.464 32.8988 259.113C32.5301 258.762 32.2555 258.325 32.1 257.84L20.44 220.06ZM200 100C155 100 140 85 140 40C185 40 200 55 200 100ZM172 259.68C144.6 263.88 109.48 225.56 101.6 183.68L119.38 118C127.36 111 137.44 107.34 147.76 107.34C158.946 107.294 169.872 110.71 179.04 117.12C182.267 119.286 186.074 120.426 189.961 120.39C193.848 120.355 197.633 119.145 200.82 116.92C209.266 110.663 219.509 107.302 230.02 107.34C245.42 107.34 262.88 117.12 271.02 131.36C301.74 185.28 247.14 265.54 208.14 259.7C206.353 259.352 204.632 258.724 203.04 257.84C199.011 255.774 194.548 254.697 190.02 254.697C185.492 254.697 181.029 255.774 177 257.84C175.438 258.708 173.752 259.328 172 259.68Z" fill="#2763E5"/>
</svg>
