<svg width="27" height="26" viewBox="0 0 27 26" fill="none" xmlns="http://www.w3.org/2000/svg">
<path d="M22.7611 25.9873H3.25159C2.35401 25.9873 1.58769 25.6698 0.952614 25.0347C0.317538 24.3996 0 23.6333 0 22.7357V3.22619C0 2.32861 0.317538 1.56652 0.952614 0.939912C1.58769 0.313304 2.35401 0 3.25159 0H17.8837L14.6321 3.22619H4.87738C4.42013 3.22619 4.03485 3.38707 3.72154 3.70884C3.40824 4.03061 3.25159 4.41166 3.25159 4.85198V21.1099C3.25159 21.5672 3.41247 21.9525 3.73425 22.2658C4.05602 22.5791 4.43706 22.7357 4.87738 22.7357H21.1353C21.5926 22.7357 21.9779 22.5791 22.2912 22.2658C22.6045 21.9525 22.7611 21.5672 22.7611 21.1099V11.3552L26.0127 8.10357V22.7357C26.0127 23.6333 25.6952 24.3996 25.0601 25.0347C24.425 25.6698 23.6587 25.9873 22.7611 25.9873ZM8.12897 14.2003L11.787 17.8583L6.50318 19.4841L8.12897 14.2003ZM13.4128 16.639L9.34832 12.5999L21.5164 0.406449C21.8043 0.135483 22.1472 0 22.5452 0C22.9432 0 23.2861 0.135483 23.574 0.406449L25.5809 2.43869C25.8518 2.70966 25.9915 3.04413 26 3.44211C26.0085 3.84009 25.8688 4.18303 25.5809 4.47093L13.4128 16.639Z" fill="#050505"/>
</svg>
