<svg width="26" height="25" viewBox="0 0 26 25" fill="none" xmlns="http://www.w3.org/2000/svg">
<path d="M13.916 0.614681C13.7237 0.239303 13.3342 0 12.9119 0C12.4896 0 12.1001 0.239303 11.9078 0.614681L8.45429 7.38086L0.951431 8.57269C0.533823 8.63838 0.186599 8.93399 0.0552166 9.33752C-0.0761655 9.74105 0.0317557 10.1821 0.327366 10.4824L5.69527 15.855L4.51283 23.3579C4.44714 23.7755 4.62075 24.1978 4.96328 24.4465C5.30581 24.6952 5.75627 24.7327 6.13633 24.5403L12.9119 21.0962L19.6828 24.5403C20.0582 24.7327 20.5133 24.6952 20.8558 24.4465C21.1984 24.1978 21.372 23.7802 21.3063 23.3579L20.1192 15.855L25.4871 10.4824C25.7874 10.1821 25.8906 9.74105 25.7592 9.33752C25.6278 8.93399 25.2853 8.63838 24.863 8.57269L17.3648 7.38086L13.916 0.614681Z" fill="#050505"/>
</svg>
