<svg width="26" height="26" viewBox="0 0 26 26" fill="none" xmlns="http://www.w3.org/2000/svg">
<path d="M14.0506 1.42779C13.8582 1.05241 13.4687 0.81311 13.0464 0.81311C12.6241 0.81311 12.2347 1.05241 12.0423 1.42779L8.58881 8.19397L1.08595 9.3858C0.668345 9.45149 0.32112 9.7471 0.189738 10.1506C0.0583559 10.5542 0.166277 10.9952 0.461887 11.2955L5.82979 16.6681L4.64735 24.171C4.58166 24.5886 4.75527 25.0109 5.0978 25.2596C5.44033 25.5083 5.89079 25.5458 6.27086 25.3534L13.0464 21.9093L19.8173 25.3534C20.1927 25.5458 20.6478 25.5083 20.9904 25.2596C21.3329 25.0109 21.5065 24.5933 21.4408 24.171L20.2537 16.6681L25.6216 11.2955C25.9219 10.9952 26.0251 10.5542 25.8937 10.1506C25.7623 9.7471 25.4198 9.45149 24.9975 9.3858L17.4993 8.19397L14.0506 1.42779Z" fill="#2763E5"/>
</svg>
