<svg width="25" height="25" viewBox="0 0 25 25" fill="none" xmlns="http://www.w3.org/2000/svg">
<path d="M18.5358 4.18083C18.2491 4.18083 17.9687 4.26587 17.7303 4.4252C17.4918 4.58453 17.306 4.81099 17.1962 5.07594C17.0865 5.3409 17.0577 5.63244 17.1137 5.91371C17.1696 6.19499 17.3077 6.45335 17.5105 6.65614C17.7133 6.85892 17.9717 6.99702 18.253 7.05297C18.5342 7.10892 18.8258 7.08021 19.0907 6.97046C19.3557 6.86071 19.5821 6.67486 19.7415 6.43641C19.9008 6.19796 19.9858 5.91762 19.9858 5.63083C19.9858 5.24627 19.8331 4.87746 19.5611 4.60553C19.2892 4.3336 18.9204 4.18083 18.5358 4.18083ZM24.0942 7.105C24.0707 6.10244 23.8829 5.11053 23.5383 4.16875C23.2311 3.36295 22.7529 2.6333 22.1367 2.03C21.5383 1.41064 20.807 0.935463 19.9979 0.640417C19.0586 0.285361 18.0656 0.0932954 17.0617 0.0724999C15.7808 -6.70552e-08 15.37 0 12.0833 0C8.79667 0 8.38583 -6.70552e-08 7.105 0.0724999C6.10106 0.0932954 5.10804 0.285361 4.16875 0.640417C3.36119 0.93845 2.63046 1.41322 2.03 2.03C1.41064 2.62834 0.935463 3.3597 0.640417 4.16875C0.285361 5.10804 0.0932954 6.10106 0.0724999 7.105C-6.70552e-08 8.38583 0 8.79667 0 12.0833C0 15.37 -6.70552e-08 15.7808 0.0724999 17.0617C0.0932954 18.0656 0.285361 19.0586 0.640417 19.9979C0.935463 20.807 1.41064 21.5383 2.03 22.1367C2.63046 22.7534 3.36119 23.2282 4.16875 23.5263C5.10804 23.8813 6.10106 24.0734 7.105 24.0942C8.38583 24.1667 8.79667 24.1667 12.0833 24.1667C15.37 24.1667 15.7808 24.1667 17.0617 24.0942C18.0656 24.0734 19.0586 23.8813 19.9979 23.5263C20.807 23.2312 21.5383 22.756 22.1367 22.1367C22.7556 21.5356 23.2342 20.8053 23.5383 19.9979C23.8829 19.0561 24.0707 18.0642 24.0942 17.0617C24.0942 15.7808 24.1667 15.37 24.1667 12.0833C24.1667 8.79667 24.1667 8.38583 24.0942 7.105ZM21.9192 16.9167C21.9104 17.6837 21.7715 18.4436 21.5083 19.1642C21.3154 19.69 21.0055 20.1652 20.6021 20.5538C20.2102 20.9531 19.736 21.2624 19.2125 21.46C18.492 21.7231 17.732 21.862 16.965 21.8708C15.7567 21.9313 15.3096 21.9433 12.1317 21.9433C8.95375 21.9433 8.50667 21.9433 7.29833 21.8708C6.50191 21.8857 5.70889 21.7631 4.95417 21.5083C4.45365 21.3006 4.00122 20.9921 3.625 20.6021C3.22394 20.2139 2.91794 19.7384 2.73083 19.2125C2.43583 18.4816 2.2722 17.7044 2.2475 16.9167C2.2475 15.7083 2.175 15.2613 2.175 12.0833C2.175 8.90542 2.175 8.45833 2.2475 7.25C2.25292 6.46586 2.39606 5.68877 2.67042 4.95417C2.88314 4.44414 3.20965 3.9895 3.625 3.625C3.99211 3.20954 4.44581 2.87957 4.95417 2.65833C5.69071 2.39255 6.467 2.25364 7.25 2.2475C8.45833 2.2475 8.90542 2.175 12.0833 2.175C15.2613 2.175 15.7083 2.175 16.9167 2.2475C17.6837 2.2563 18.4436 2.39521 19.1642 2.65833C19.7133 2.86212 20.2061 3.19344 20.6021 3.625C20.9981 3.99617 21.3075 4.44997 21.5083 4.95417C21.7769 5.68996 21.9159 6.46673 21.9192 7.25C21.9796 8.45833 21.9917 8.90542 21.9917 12.0833C21.9917 15.2613 21.9796 15.7083 21.9192 16.9167ZM12.0833 5.88458C10.8579 5.88697 9.66058 6.25255 8.64279 6.93513C7.625 7.61771 6.83238 8.58665 6.36506 9.71954C5.89774 10.8524 5.77671 12.0984 6.01725 13.3C6.25779 14.5017 6.84912 15.6051 7.71651 16.4708C8.5839 17.3365 9.68843 17.9256 10.8905 18.1638C12.0926 18.4021 13.3384 18.2786 14.4704 17.8091C15.6023 17.3395 16.5697 16.545 17.2503 15.5259C17.9309 14.5068 18.2942 13.3088 18.2942 12.0833C18.2958 11.2678 18.1361 10.4601 17.8244 9.70649C17.5127 8.95291 17.0551 8.2684 16.4779 7.69231C15.9007 7.11623 15.2153 6.65994 14.4611 6.34971C13.7069 6.03947 12.8988 5.8814 12.0833 5.88458ZM12.0833 16.1071C11.2875 16.1071 10.5096 15.8711 9.84786 15.429C9.18616 14.9868 8.67042 14.3584 8.36587 13.6232C8.06133 12.8879 7.98164 12.0789 8.1369 11.2983C8.29216 10.5178 8.67538 9.80084 9.23811 9.23811C9.80085 8.67538 10.5178 8.29216 11.2983 8.1369C12.0789 7.98164 12.8879 8.06133 13.6232 8.36587C14.3584 8.67042 14.9868 9.18616 15.429 9.84786C15.8711 10.5096 16.1071 11.2875 16.1071 12.0833C16.1071 12.6117 16.003 13.135 15.8008 13.6232C15.5986 14.1113 15.3022 14.5549 14.9286 14.9286C14.5549 15.3022 14.1113 15.5986 13.6232 15.8008C13.135 16.003 12.6117 16.1071 12.0833 16.1071Z" fill="#F5F5F5"/>
</svg>
