<svg width="16" height="20" viewBox="0 0 16 20" fill="none" xmlns="http://www.w3.org/2000/svg">
<path d="M0.799893 7.47249C0.799893 3.56499 4.02489 0.399994 7.99989 0.399994C11.9749 0.399994 15.1999 3.56499 15.1999 7.47249C15.1999 11.9462 10.6924 17.3087 8.80989 19.3525C8.36739 19.8325 7.62864 19.8325 7.18614 19.3525C5.30364 17.3087 0.796143 11.9462 0.796143 7.47249H0.799893ZM7.99989 9.99999C9.32364 9.99999 10.3999 8.92374 10.3999 7.59999C10.3999 6.27624 9.32364 5.19999 7.99989 5.19999C6.67614 5.19999 5.59989 6.27624 5.59989 7.59999C5.59989 8.92374 6.67614 9.99999 7.99989 9.99999Z" fill="#050505"/>
</svg>
