<svg width="300" height="300" viewBox="0 0 300 300" fill="none" xmlns="http://www.w3.org/2000/svg">
<path d="M137.5 187.5H162.5L164.375 171.875C166.042 171.25 167.554 170.521 168.912 169.688C170.271 168.854 171.467 167.917 172.5 166.875L186.875 173.125L199.375 151.875L186.875 142.5C187.292 140.833 187.5 139.167 187.5 137.5C187.5 135.833 187.292 134.167 186.875 132.5L199.375 123.125L186.875 101.875L172.5 108.125C171.458 107.083 170.258 106.146 168.9 105.313C167.542 104.479 166.033 103.75 164.375 103.125L162.5 87.5H137.5L135.625 103.125C133.958 103.75 132.446 104.479 131.088 105.313C129.729 106.146 128.533 107.083 127.5 108.125L113.125 101.875L100.625 123.125L113.125 132.5C112.708 134.167 112.5 135.833 112.5 137.5C112.5 139.167 112.708 140.833 113.125 142.5L100.625 151.875L113.125 173.125L127.5 166.875C128.542 167.917 129.742 168.854 131.1 169.688C132.458 170.521 133.967 171.25 135.625 171.875L137.5 187.5ZM150 156.25C144.792 156.25 140.363 154.425 136.713 150.775C133.062 147.125 131.242 142.7 131.25 137.5C131.25 132.292 133.075 127.863 136.725 124.213C140.375 120.563 144.8 118.742 150 118.75C155.208 118.75 159.637 120.575 163.287 124.225C166.938 127.875 168.758 132.3 168.75 137.5C168.75 142.708 166.925 147.138 163.275 150.788C159.625 154.438 155.2 156.258 150 156.25ZM75 275V221.25C63.125 210.417 53.9083 197.758 47.35 183.275C40.7917 168.792 37.5083 153.533 37.5 137.5C37.5 106.25 48.4375 79.6875 70.3125 57.8125C92.1875 35.9375 118.75 25 150 25C176.042 25 199.117 32.6583 219.225 47.975C239.333 63.2917 252.404 83.2375 258.437 107.813L274.688 171.875C275.729 175.833 275 179.429 272.5 182.663C270 185.896 266.667 187.508 262.5 187.5H237.5V225C237.5 231.875 235.05 237.763 230.15 242.663C225.25 247.563 219.367 250.008 212.5 250H187.5V275H75Z" fill="#2730E5"/>
</svg>
