<svg width="26" height="26" viewBox="0 0 26 26" fill="none" xmlns="http://www.w3.org/2000/svg">
<path d="M25.518 14.078L21.3834 19.1512C21.1974 19.3541 20.948 19.4598 20.6351 19.4683C20.3223 19.4767 20.0517 19.4133 19.8234 19.278C19.5951 19.1428 19.481 18.9821 19.481 18.7961V16.2341H16.2341C15.7945 16.2341 15.414 16.0777 15.0927 15.7649C14.7714 15.452 14.6107 15.0673 14.6107 14.6107V11.3639C14.6107 10.9073 14.7714 10.5226 15.0927 10.2098C15.414 9.89691 15.7945 9.74049 16.2341 9.74049H19.481V7.2039C19.481 7.00098 19.5951 6.83187 19.8234 6.69659C20.0517 6.5613 20.3223 6.49789 20.6351 6.50634C20.948 6.5148 21.1974 6.62049 21.3834 6.82341L25.518 11.8712C25.8224 12.1756 25.9746 12.5434 25.9746 12.9746C25.9746 13.4059 25.8224 13.7737 25.518 14.078ZM16.2468 6.49366C15.7987 6.49366 15.414 6.33301 15.0927 6.01171C14.7714 5.69041 14.6107 5.30569 14.6107 4.85756C14.6107 4.40943 14.4543 4.02894 14.1415 3.7161C13.8286 3.40325 13.4439 3.24683 12.9873 3.24683H4.87024C4.43057 3.24683 4.05008 3.40325 3.72878 3.7161C3.40748 4.02894 3.24683 4.41366 3.24683 4.87024V21.1044C3.24683 21.5441 3.40748 21.9246 3.72878 22.2459C4.05008 22.5672 4.43057 22.7278 4.87024 22.7278H12.9873C13.4439 22.7278 13.8286 22.5672 14.1415 22.2459C14.4543 21.9246 14.6107 21.5398 14.6107 21.0917C14.6107 20.6436 14.7714 20.2631 15.0927 19.9502C15.414 19.6374 15.7987 19.481 16.2468 19.481C16.695 19.481 17.0754 19.6374 17.3883 19.9502C17.7011 20.2631 17.8576 20.6478 17.8576 21.1044V22.7278C17.8576 23.6241 17.5405 24.3893 16.9063 25.0234C16.2722 25.6576 15.507 25.9746 14.6107 25.9746H3.24683C2.35057 25.9746 1.58537 25.6576 0.951219 25.0234C0.317073 24.3893 0 23.6241 0 22.7278V3.24683C0 2.35057 0.317073 1.58537 0.951219 0.951219C1.58537 0.317073 2.35057 0 3.24683 0H14.6107C15.507 0 16.2722 0.317073 16.9063 0.951219C17.5405 1.58537 17.8576 2.35057 17.8576 3.24683V4.87024C17.8576 5.30992 17.7011 5.69041 17.3883 6.01171C17.0754 6.33301 16.695 6.49366 16.2468 6.49366Z" fill="#050505"/>
</svg>
