<svg width="36" height="36" viewBox="0 0 36 36" fill="none" xmlns="http://www.w3.org/2000/svg">
<path d="M28.5 16.5H10.71L16.155 9.96C16.4096 9.65368 16.5321 9.25876 16.4955 8.86212C16.459 8.46548 16.2663 8.09961 15.96 7.845C15.6537 7.59039 15.2588 7.4679 14.8621 7.50447C14.4655 7.54104 14.0996 7.73368 13.845 8.04L6.345 17.04C6.29454 17.1116 6.24942 17.1868 6.21 17.265C6.21 17.34 6.21 17.385 6.105 17.46C6.03701 17.632 6.00141 17.8151 6 18C6.00141 18.1849 6.03701 18.368 6.105 18.54C6.105 18.615 6.105 18.66 6.21 18.735C6.24942 18.8132 6.29454 18.8884 6.345 18.96L13.845 27.96C13.986 28.1293 14.1626 28.2655 14.3623 28.3588C14.5619 28.4522 14.7796 28.5004 15 28.5C15.3505 28.5007 15.6901 28.3786 15.96 28.155C16.1119 28.0291 16.2374 27.8744 16.3295 27.6999C16.4215 27.5254 16.4782 27.3344 16.4963 27.138C16.5144 26.9415 16.4936 26.7434 16.435 26.555C16.3765 26.3666 16.2813 26.1916 16.155 26.04L10.71 19.5H28.5C28.8978 19.5 29.2794 19.342 29.5607 19.0607C29.842 18.7794 30 18.3978 30 18C30 17.6022 29.842 17.2206 29.5607 16.9393C29.2794 16.658 28.8978 16.5 28.5 16.5Z" fill="#050505"/>
</svg>
